<svg width="858" height="904" viewBox="0 0 858 904" fill="none" xmlns="http://www.w3.org/2000/svg">
<g opacity="0.8" filter="url(#filter0_f_3_761)">
<path d="M452.25 171.5C607.196 171.5 733 297.304 733 452.25C733 607.196 607.196 733 452.25 733C297.304 733 171.5 607.196 171.5 452.25C171.5 297.304 297.304 171.5 452.25 171.5Z" stroke="#0F1A21" stroke-width="5"/>
</g>
<g opacity="0.8" filter="url(#filter1_f_3_761)">
<path d="M452.25 325.5C522.203 325.5 579 382.297 579 452.25C579 522.203 522.203 579 452.25 579C382.297 579 325.5 522.203 325.5 452.25C325.5 382.297 382.297 325.5 452.25 325.5Z" stroke="#0F1A21" stroke-width="5"/>
</g>
<g opacity="0.3" filter="url(#filter2_f_3_761)">
<path d="M452.25 208.5C586.776 208.5 696 317.724 696 452.25C696 586.776 586.776 696 452.25 696C317.724 696 208.5 586.776 208.5 452.25C208.5 317.724 317.724 208.5 452.25 208.5Z" stroke="#0F1A21" stroke-width="5"/>
</g>
<g opacity="0.25" filter="url(#filter3_f_3_761)">
<path d="M452.25 124C633.411 124 780.5 271.089 780.5 452.25C780.5 633.411 633.411 780.5 452.25 780.5C271.089 780.5 124 633.411 124 452.25C124 271.089 271.089 124 452.25 124Z" stroke="#0F1A21" stroke-width="5"/>
</g>
<g opacity="0.45" filter="url(#filter4_f_3_761)">
<path d="M452.25 63C667.077 63 841.5 237.423 841.5 452.25C841.5 667.077 667.077 841.5 452.25 841.5C237.423 841.5 63 667.077 63 452.25C63 237.423 237.423 63 452.25 63Z" stroke="#0F1A21" stroke-width="5"/>
</g>
<path d="M452.25 360C503.163 360 544.5 401.337 544.5 452.25C544.5 503.163 503.163 544.5 452.25 544.5C401.337 544.5 360 503.163 360 452.25C360 401.337 401.337 360 452.25 360Z" fill="#50575F"/>
<path d="M543.25 345C553.874 345 562.5 353.626 562.5 364.25C562.5 374.874 553.874 383.5 543.25 383.5C532.626 383.5 524 374.874 524 364.25C524 353.626 532.626 345 543.25 345Z" fill="#C1C8D1"/>
<path d="M320.25 317.15C332.447 317.15 342.35 327.053 342.35 339.25C342.35 351.447 332.447 361.35 320.25 361.35C308.053 361.35 298.15 351.447 298.15 339.25C298.15 327.053 308.053 317.15 320.25 317.15Z" fill="#9FB1BB"/>
<path d="M412.25 685.85C415.782 685.85 418.65 688.718 418.65 692.25C418.65 695.782 415.782 698.65 412.25 698.65C408.718 698.65 405.85 695.782 405.85 692.25C405.85 688.718 408.718 685.85 412.25 685.85Z" fill="#D9DEE3"/>
<path d="M635.25 220.85C644.853 220.85 652.65 228.647 652.65 238.25C652.65 247.853 644.853 255.65 635.25 255.65C625.647 255.65 617.85 247.853 617.85 238.25C617.85 228.647 625.647 220.85 635.25 220.85Z" fill="#9FB1BB"/>
<path d="M123.25 435C128.907 435 133.5 439.593 133.5 445.25C133.5 450.907 128.907 455.5 123.25 455.5C117.593 455.5 113 450.907 113 445.25C113 439.593 117.593 435 123.25 435Z" fill="#AEB2BC"/>
<path d="M820.25 537.1C841.305 537.1 858.4 554.195 858.4 575.25C858.4 596.305 841.305 613.4 820.25 613.4C799.195 613.4 782.1 596.305 782.1 575.25C782.1 554.195 799.195 537.1 820.25 537.1Z" fill="#DADFE6"/>
<path d="M109.25 748.35C120.233 748.35 129.15 757.267 129.15 768.25C129.15 779.233 120.233 788.15 109.25 788.15C98.2673 788.15 89.3501 779.233 89.3501 768.25C89.3501 757.267 98.2673 748.35 109.25 748.35Z" fill="#AEB2BC"/>
<path d="M224.25 225.65C230.1 225.65 234.85 230.4 234.85 236.25C234.85 242.1 230.1 246.85 224.25 246.85C218.4 246.85 213.65 242.1 213.65 236.25C213.65 230.4 218.4 225.65 224.25 225.65Z" fill="#DADFE6"/>
<defs>
<filter id="filter0_f_3_761" x="109" y="109" width="686.5" height="686.5" filterUnits="userSpaceOnUse" color-interpolation-filters="sRGB">
<feFlood flood-opacity="0" result="BackgroundImageFix"/>
<feBlend mode="normal" in="SourceGraphic" in2="BackgroundImageFix" result="shape"/>
<feGaussianBlur stdDeviation="30" result="effect1_foregroundBlur_3_761"/>
</filter>
<filter id="filter1_f_3_761" x="293" y="293" width="318.5" height="318.5" filterUnits="userSpaceOnUse" color-interpolation-filters="sRGB">
<feFlood flood-opacity="0" result="BackgroundImageFix"/>
<feBlend mode="normal" in="SourceGraphic" in2="BackgroundImageFix" result="shape"/>
<feGaussianBlur stdDeviation="15" result="effect1_foregroundBlur_3_761"/>
</filter>
<filter id="filter2_f_3_761" x="176" y="176" width="552.5" height="552.5" filterUnits="userSpaceOnUse" color-interpolation-filters="sRGB">
<feFlood flood-opacity="0" result="BackgroundImageFix"/>
<feBlend mode="normal" in="SourceGraphic" in2="BackgroundImageFix" result="shape"/>
<feGaussianBlur stdDeviation="15" result="effect1_foregroundBlur_3_761"/>
</filter>
<filter id="filter3_f_3_761" x="91.5" y="91.5" width="721.5" height="721.5" filterUnits="userSpaceOnUse" color-interpolation-filters="sRGB">
<feFlood flood-opacity="0" result="BackgroundImageFix"/>
<feBlend mode="normal" in="SourceGraphic" in2="BackgroundImageFix" result="shape"/>
<feGaussianBlur stdDeviation="15" result="effect1_foregroundBlur_3_761"/>
</filter>
<filter id="filter4_f_3_761" x="0.5" y="0.5" width="903.5" height="903.5" filterUnits="userSpaceOnUse" color-interpolation-filters="sRGB">
<feFlood flood-opacity="0" result="BackgroundImageFix"/>
<feBlend mode="normal" in="SourceGraphic" in2="BackgroundImageFix" result="shape"/>
<feGaussianBlur stdDeviation="30" result="effect1_foregroundBlur_3_761"/>
</filter>
</defs>
</svg>
