<svg width="891" height="849" viewBox="0 0 891 849" fill="none" xmlns="http://www.w3.org/2000/svg">
<path d="M714.036 547.032H65.7666V550.901H714.036V547.032Z" fill="#0E2E35"/>
<path d="M164.664 317.963C166.089 317.397 166.357 315.962 167.054 312.415C168.301 306.07 169.548 299.722 171.016 293.426C171.247 292.435 172.505 291.253 173.524 290.947C179.586 289.125 185.76 287.669 191.801 285.786C193.674 285.203 194.726 285.2 196.127 286.72C201.725 292.795 207.494 298.714 213.137 304.625C220.037 301.603 234.676 290.122 238.369 284.752C234.043 278.175 229.726 271.389 225.148 264.783C223.723 262.727 223.704 261.545 225.144 259.344C228.485 254.237 231.37 248.809 234.129 243.354C235.246 241.146 236.212 239.9 238.989 240.033C246.186 240.378 253.402 240.286 260.607 240.509C262.543 240.57 263.641 239.999 263.869 238.056C264.94 228.915 265.999 219.772 267.067 210.631C267.33 208.383 265.522 208.38 264.171 208.082C257.339 206.572 250.511 205.025 243.634 203.745C241.052 203.265 240.028 202.168 239.459 199.565C237.956 192.677 236.003 185.887 234.093 178.533C239.966 172.883 246.452 166.645 253.117 160.233C247.928 150.809 241.27 142.69 233.095 135.347C225.575 140.252 218.052 145.159 211.423 149.483C203.973 145.56 197.153 141.773 190.137 138.395C188.106 137.418 187.621 136.446 187.687 134.401C187.919 127.301 187.93 120.195 188.113 113.094C188.152 111.558 188.008 110.464 186.254 110.007C177.391 107.698 168.452 106.167 159.23 106.591C157.174 106.686 156.517 107.552 156.141 109.33C154.63 116.486 152.982 123.613 151.5 130.774C151.142 132.509 150.583 133.311 148.642 133.823C141.913 135.597 135.253 137.665 128.659 139.898C126.975 140.468 126.2 140.043 125.172 138.974C119.443 133.018 113.669 127.104 107.763 121.023C98.5334 126.378 90.1933 132.571 82.9521 140.569C87.9551 148.239 92.9259 155.86 97.6827 163.154C93.395 170.839 89.2438 178.281 84.8019 186.243C78.4747 186.153 71.186 185.997 63.8968 185.963C57.9144 185.935 58.5207 184.966 57.1619 191.223C57.0325 191.82 56.6864 192.37 56.4407 192.942C55.8425 198.424 55.2442 203.906 54.6456 209.387C54.7333 210.627 55.02 211.89 54.8701 213.1C54.4801 216.247 55.4666 217.795 58.8698 218.389C65.9612 219.625 72.979 221.306 79.9867 222.973C80.9047 223.191 82.0182 224.261 82.3091 225.171C84.2057 231.103 85.5932 237.217 87.7921 243.027C88.8682 245.87 88.2939 247.257 86.2706 249.134C80.5308 254.458 75.0106 260.018 68.8405 266.034C75.4594 274.439 81.9163 282.638 88.4459 290.929C90.1427 289.868 91.1291 289.273 92.0934 288.644C98.0404 284.763 104.023 280.936 109.899 276.951C111.568 275.819 112.664 276.034 114.372 277.003C120.242 280.332 126.325 283.284 132.218 286.574C133.132 287.085 133.99 288.606 134.002 289.669C134.07 295.493 133.815 301.32 133.766 307.147C133.727 311.862 133.729 313.612 135.482 314.778L164.664 317.963ZM156.454 277.29C139.069 276.154 123.167 268.315 111.677 255.218C100.188 242.121 94.486 225.333 95.6226 207.948C96.7592 190.563 104.599 174.661 117.696 163.171C130.793 151.682 147.58 145.98 164.965 147.117C182.35 148.253 198.253 156.092 209.742 169.189C221.232 182.286 226.933 199.074 225.797 216.459C224.66 233.844 216.821 249.747 203.724 261.236C190.627 272.726 173.84 278.427 156.454 277.29Z" fill="#50BFA5"/>
<path d="M495.429 150.484L483.014 141.187C482.214 141.062 481.707 141.642 480.435 143.068C478.162 145.619 475.887 148.17 473.527 150.638C473.155 151.027 472.265 151.227 471.719 151.091C468.472 150.29 465.273 149.292 462.019 148.523C461.011 148.285 460.531 148.003 460.303 146.935C459.391 142.667 458.359 138.424 457.382 134.218C453.431 133.737 443.686 135.021 440.562 136.471C440.761 140.625 440.9 144.872 441.205 149.107C441.3 150.426 440.991 150.969 439.744 151.583C436.851 153.007 434.08 154.699 431.358 156.438C430.256 157.142 429.481 157.449 428.254 156.641C425.074 154.549 421.767 152.651 418.551 150.611C417.686 150.063 417.033 150.028 416.407 150.85C413.462 154.719 410.522 158.593 407.577 162.463C406.854 163.415 407.675 163.902 408.209 164.401C410.911 166.925 413.6 169.465 416.383 171.896C417.428 172.809 417.599 173.583 417.157 174.92C415.989 178.457 415.051 182.07 413.942 185.928C409.751 186.918 405.125 188.011 400.369 189.135C400.194 194.816 401.038 200.299 402.782 205.837C407.521 205.629 412.262 205.42 416.44 205.236C418.773 209.025 420.856 212.58 423.139 216.004C423.8 216.994 423.759 217.567 423.179 218.479C421.164 221.645 419.248 224.875 417.255 228.055C416.824 228.743 416.596 229.279 417.27 229.958C420.681 233.392 424.334 236.492 428.642 238.779C429.602 239.289 430.134 239.072 430.783 238.365C433.395 235.517 436.061 232.719 438.661 229.86C439.291 229.168 439.76 228.953 440.78 229.242C444.318 230.245 447.903 231.096 451.502 231.853C452.421 232.047 452.66 232.449 452.84 233.211C453.844 237.461 454.879 241.703 455.93 246.057C461.568 246.103 467.026 245.529 472.47 243.84C472.258 239.006 472.046 234.203 471.844 229.607C475.861 227.264 479.751 224.997 483.912 222.57C486.766 224.312 490.038 226.344 493.344 228.319C496.058 229.941 495.521 230.219 497.821 227.738C498.041 227.502 498.346 227.345 498.612 227.151C500.358 224.819 502.105 222.486 503.851 220.154C504.145 219.567 504.354 218.915 504.747 218.405C505.771 217.079 505.739 216.11 504.351 214.925C501.458 212.455 498.719 209.803 495.98 207.161C495.621 206.814 495.403 206.028 495.515 205.536C496.248 202.328 497.261 199.175 497.823 195.941C498.098 194.358 498.732 193.882 500.157 193.573C504.199 192.695 508.205 191.651 512.629 190.574C511.879 184.972 511.148 179.506 510.408 173.98C509.351 174.006 508.742 174.011 508.134 174.038C504.386 174.204 500.636 174.334 496.891 174.567C495.828 174.633 495.388 174.241 494.872 173.34C493.098 170.248 491.125 167.27 489.329 164.188C489.051 163.711 489.07 162.788 489.35 162.301C490.886 159.634 492.568 157.053 494.158 154.416C495.443 152.282 495.913 151.486 495.429 150.484ZM471.417 170.257C482.514 178.566 484.774 194.298 476.464 205.395C468.155 216.493 452.422 218.752 441.325 210.443C430.228 202.133 427.969 186.401 436.278 175.304C444.588 164.207 460.32 161.947 471.417 170.257Z" fill="#F47458"/>
<path d="M719.508 157.495C708.35 115.712 665.281 90.7956 623.497 101.953C581.714 113.109 556.797 156.179 567.954 197.962C579.111 239.746 622.181 264.662 663.964 253.506C705.748 242.349 730.664 199.279 719.508 157.495ZM701.49 164.965L701.49 164.965C708.539 196.865 688.394 228.439 656.494 235.488C624.595 242.537 593.021 222.392 585.972 190.493L585.971 190.493C578.922 158.593 599.067 127.019 630.967 119.97C662.867 112.921 694.441 133.066 701.49 164.965Z" fill="#F7CC7F"/>
<path d="M766.886 130.868C765.649 129.414 763.851 129.67 759.389 130.263C751.408 131.324 743.423 132.386 735.412 133.167C734.151 133.29 732.256 132.277 731.488 131.197C726.92 124.775 722.74 118.074 718.109 111.7C716.674 109.725 716.251 108.485 717.484 106.227C722.415 97.1998 727.094 88.0351 731.814 79.0214C725.498 72.0881 706.116 59.4033 698.308 57.1907C692.278 64.9167 685.997 72.7168 680.032 80.7514C678.176 83.2522 676.789 83.7462 673.618 82.9263C666.262 81.0236 658.71 79.7874 651.176 78.7094C648.125 78.2726 646.27 77.6306 645.32 74.3028C642.855 65.6771 639.867 57.2022 637.256 48.616C636.554 46.3086 635.443 45.2411 633.061 45.7477C621.852 48.1316 610.647 50.5311 599.439 52.9184C596.684 53.5056 597.402 55.6393 597.588 57.3511C598.534 66.0116 599.433 74.6821 600.668 83.3033C601.132 86.5405 600.248 88.1857 597.404 89.8944C589.88 94.4158 582.651 99.4279 574.74 104.615C565.733 99.9418 555.789 94.7826 545.566 89.4791C536.522 99.3599 529.602 110.452 524.205 123.023C532.99 129.934 541.778 136.849 549.523 142.943C547.869 153.295 546.124 162.849 544.94 172.472C544.597 175.258 543.644 176.217 541.205 176.955C532.74 179.514 524.354 182.337 515.906 184.954C514.079 185.52 512.846 186.127 513.007 188.378C513.821 199.753 515.581 210.905 519.761 221.613C520.693 224 521.977 224.43 524.223 224.163C533.266 223.09 542.329 222.191 551.366 221.081C553.555 220.812 554.724 221.151 556.102 223.234C560.88 230.463 565.976 237.494 571.24 244.379C572.585 246.138 572.393 247.222 571.542 248.861C566.804 257.995 562.132 267.163 557.317 276.555C567.316 285.304 577.947 292.669 590.268 298.019C597.319 289.058 604.325 280.154 611.028 271.634C621.803 273.624 632.236 275.551 643.399 277.614C645.818 285.112 648.541 293.77 651.409 302.38C653.764 309.447 652.379 309.119 660.3 308.225C661.056 308.14 661.843 308.328 662.615 308.39C669.32 306.908 676.024 305.427 682.728 303.945C684.155 303.347 685.531 302.505 687.017 302.199C690.885 301.403 692.317 299.622 691.659 295.372C690.287 286.515 689.47 277.568 688.64 268.637C688.531 267.467 689.349 265.728 690.306 265.022C696.546 260.418 703.202 256.342 709.178 251.43C712.101 249.027 713.966 249.15 716.987 250.788C725.556 255.433 734.316 259.726 743.873 264.602C751.145 253.442 758.239 242.556 765.413 231.547C763.484 229.969 762.389 229.043 761.261 228.157C754.312 222.691 747.411 217.161 740.366 211.821C738.366 210.305 738.182 208.927 738.644 206.526C740.228 198.274 741.283 189.922 742.812 181.659C743.049 180.377 744.5 178.759 745.75 178.32C752.592 175.917 759.566 173.892 766.457 171.625C772.034 169.79 774.098 169.089 774.772 166.557L766.886 130.868ZM722.192 156.779C727.788 177.737 724.888 199.619 714.025 218.395C703.163 237.172 685.639 250.595 664.681 256.191C643.723 261.787 621.84 258.887 603.064 248.024C584.287 237.162 570.865 219.637 565.269 198.679C559.673 177.722 562.573 155.839 573.436 137.062C584.298 118.286 601.822 104.864 622.78 99.2674C643.738 93.6713 665.621 96.5717 684.397 107.434C703.174 118.296 716.596 135.821 722.192 156.779Z" fill="#F7CC7F"/>
<path d="M426.694 183.127H377.927C372.936 183.127 368.89 187.173 368.89 192.165V208.142C368.89 213.134 372.936 217.18 377.927 217.18H426.694C431.685 217.18 435.731 213.134 435.731 208.142V192.165C435.731 187.173 431.685 183.127 426.694 183.127Z" fill="#5184CE"/>
<path d="M362.09 518.795L310.439 542.602V547.875H494.384V542.602L442.267 518.795H362.09Z" fill="#466EB6"/>
<path d="M442.3 518.838H362.09V416.753H442.3V518.838Z" fill="#466EB6"/>
<path d="M644.909 448.778V218.576C644.909 207.639 636.042 198.772 625.104 198.772H178.765C167.827 198.772 158.96 207.639 158.96 218.576V448.778H644.909Z" fill="#466EB6"/>
<path d="M442.268 506.815H362.09V518.795H442.268V506.815Z" fill="#184655"/>
<path d="M158.96 448.778V485.667C158.96 493.34 164.032 499.56 170.289 499.56H633.581C639.837 499.56 644.909 493.34 644.909 485.667V448.778H158.96Z" fill="#5184CE"/>
<path d="M407.213 192.171C407.213 194.663 405.192 196.683 402.701 196.683C400.209 196.683 398.189 194.663 398.189 192.171C398.189 189.679 400.209 187.659 402.701 187.659C405.192 187.659 407.213 189.679 407.213 192.171Z" fill="#CED8DB"/>
<path d="M633.533 438.781V219.191C633.533 213.435 628.699 208.769 622.736 208.769H181.133C175.17 208.769 170.335 213.435 170.335 219.191V438.781H633.533Z" fill="#CCE6FF"/>
<path d="M310.44 547.875H494.384V542.602H310.44V547.875ZM0 26.7036H785.605V579.363H0V26.7036ZM0 579.363H785.605V26.7036H0V579.363Z" fill="#184655"/>
<path d="M524.103 420.904H523.964V420.025H524.103V420.904Z" fill="#466EB6"/>
<path d="M500.794 421.366H494.548V393.676H500.794V421.366Z" fill="#466EB6"/>
<path d="M607.344 421.712H601.818V395.925H607.344V421.712Z" fill="#9BC1F9"/>
<path d="M498.111 420.734H497.972V420.257H498.111V420.734Z" fill="#9BC1F9"/>
<path d="M469.081 420.759H190.677V226.495H469.081V420.759Z" fill="#E9FFFF"/>
<path d="M469.081 249.24H190.677V226.495H469.081V249.24Z" fill="#5184CE"/>
<path d="M457.25 291.588H200.283V258.607H457.25V291.588Z" fill="#9BC1F9"/>
<path d="M281.647 398.511H200.283V300.955H281.647V398.511Z" fill="#5184CE"/>
<path d="M433.758 309.409H291.827V300.955H433.758V309.409Z" fill="#9BC1F9"/>
<path d="M491.383 266.56H531.468V226.476H491.383V266.56ZM0 26.7036H785.605V579.363H0V26.7036ZM0 579.363H785.605V26.7036H0V579.363Z" fill="#9BC1F9"/>
<path d="M604.94 231.053H538.539V226.428H604.94V231.053Z" fill="#9BC1F9"/>
<path d="M572.958 241.36H538.607V237.815H572.958V241.36Z" fill="#9BC1F9"/>
<path d="M548.714 250.357H538.115V249.535H548.714V250.357Z" fill="#9BC1F9"/>
<path d="M84.0426 334.951L238.519 334.673C240.84 334.669 242.724 336.546 242.728 338.866L243.094 542.42C243.099 544.74 241.221 546.624 238.901 546.628L84.424 546.906C82.1042 546.91 80.2205 545.033 80.2163 542.713L79.8496 339.159C79.8455 336.84 81.7226 334.955 84.0426 334.951Z" fill="#F7CC7F"/>
<path d="M88.3306 340.857L234.253 340.594L234.611 539.551L88.689 539.814L88.3306 340.857Z" fill="white"/>
<path d="M192.911 331.945C192.909 331.05 192.183 330.326 191.288 330.327L130.018 330.437C129.123 330.439 128.399 331.166 128.401 332.061L128.412 338.429L192.923 338.313L192.911 331.945Z" fill="#13375B"/>
<path d="M160.639 322.639C155.302 322.649 150.984 326.983 150.994 332.32C151.003 337.656 155.337 341.975 160.674 341.965C166.011 341.956 170.329 337.622 170.32 332.285C170.31 326.948 165.976 322.63 160.639 322.639ZM160.668 338.5C157.245 338.506 154.466 335.736 154.46 332.314C154.454 328.891 157.223 326.111 160.646 326.105C164.068 326.099 166.847 328.868 166.854 332.291C166.86 335.714 164.09 338.494 160.668 338.5Z" fill="#13375B"/>
<path d="M191.919 330.453C192.501 330.699 192.91 331.274 192.911 331.945L192.922 338.313L128.412 338.429C128.42 342.841 132.003 346.411 136.415 346.403L184.948 346.316C189.36 346.308 192.93 342.725 192.922 338.313L192.911 331.945C192.91 331.274 192.501 330.699 191.919 330.453Z" fill="#355389"/>
<path d="M130.018 330.438C129.459 330.439 128.966 330.723 128.676 331.154C128.966 330.723 129.459 330.439 130.018 330.438Z" fill="#9BC1F9"/>
<path d="M128.473 331.579C128.504 331.477 128.545 331.38 128.595 331.288C128.545 331.38 128.504 331.477 128.473 331.579Z" fill="#9BC1F9"/>
<path d="M130.3 369.398V359.459H126.339V358.589H135.51V359.459H131.548V369.398H130.3Z" fill="#184655"/>
<path d="M145.63 368.528V369.398H137.68V358.589H145.349V359.459H138.919V363.245H143.575V364.114H138.919V368.528H145.63Z" fill="#184655"/>
<g opacity="0.958428">
<path d="M146.896 366.811L147.973 366.453C148.335 367.223 148.797 367.792 149.361 368.16C149.925 368.527 150.617 368.711 151.437 368.711C152.281 368.711 152.961 368.519 153.476 368.134C153.992 367.749 154.25 367.242 154.25 366.614C154.25 366.112 154.081 365.699 153.743 365.375C153.405 365.051 152.833 364.755 152.025 364.487C151.584 364.346 151.001 364.175 150.275 363.975C149.548 363.776 149.082 363.627 148.877 363.53C148.232 363.228 147.774 362.906 147.502 362.565C147.231 362.224 147.095 361.802 147.095 361.3C147.095 360.404 147.436 359.699 148.117 359.185C148.799 358.671 149.736 358.414 150.93 358.414C151.991 358.414 152.867 358.625 153.558 359.046C154.248 359.468 154.774 360.115 155.136 360.987L154.087 361.257C153.755 360.585 153.328 360.088 152.807 359.766C152.285 359.445 151.642 359.284 150.876 359.284C150.134 359.284 149.533 359.457 149.072 359.802C148.61 360.148 148.38 360.599 148.38 361.154C148.38 361.574 148.529 361.927 148.827 362.214C149.126 362.502 149.588 362.736 150.216 362.916C150.457 362.989 150.807 363.089 151.265 363.215C152.579 363.576 153.426 363.861 153.806 364.07C154.415 364.392 154.857 364.744 155.131 365.126C155.406 365.509 155.543 365.961 155.543 366.482C155.543 367.428 155.173 368.181 154.435 368.741C153.696 369.301 152.697 369.581 151.437 369.581C150.303 369.581 149.37 369.357 148.638 368.909C147.905 368.46 147.325 367.761 146.896 366.811Z" fill="#184655"/>
</g>
<path d="M281.904 163.187L284.635 166.371L284.997 162.731L287.583 152.914L283.398 158.552C283.398 158.552 281.667 161.784 281.669 162.044C281.67 162.304 281.904 163.187 281.904 163.187Z" fill="#50BFA5"/>
<path d="M277.968 163.82L287.583 152.914L281.904 163.187L277.968 163.82Z" fill="#96D9C9"/>
<path d="M288.138 162.493L283.317 163.292L287.583 152.914L288.138 162.493Z" fill="#96D9C9"/>
<path d="M269.661 122.598C273.107 121.306 274.962 133.588 279.817 145.376C280.489 146.714 279.245 145.954 281.173 152.09C281.889 154.371 280.903 155.418 279.21 160.145C278.61 161.821 275.786 165.643 275.862 166.026C276.405 168.753 275.929 170.685 275.072 173.04C274.535 174.516 274.401 168.078 274.601 168.287C275.275 168.995 273.097 174.001 272.301 174.176C271.49 174.354 273.006 168.71 273.006 168.71L272.893 168.8C271.922 171.929 271.093 174.692 270.558 174.534C269.569 174.242 270.817 170.478 271.691 168.523C270.126 171.031 269.159 174.278 268.305 173.992C267.639 173.769 268.813 170.202 270.081 168.346C269.915 168.362 268.648 171.108 267.923 171.272C267.341 171.403 268.192 168.475 270.406 166.696C270.832 166.354 271.906 165.387 272.287 164.515C272.78 163.387 273.536 160.576 273.756 159.574C274.317 157.006 274.97 155.312 274.586 154.049C273.995 152.102 273.026 150.893 272.384 149.946C268.883 144.779 270.54 147.266 266.562 139.138C263.987 133.877 266.944 123.618 269.661 122.598Z" fill="#F7A491"/>
<path d="M269.392 120.109C269.949 120.132 271.476 120.644 273.708 124.863C276.559 130.251 281.97 146.251 281.97 146.251L268.703 151.021L264.894 139.748L264.059 121.607C264.059 121.607 269.238 120.103 269.392 120.109Z" fill="#A34B3D"/>
<path d="M252.951 117.763C256.507 117.768 265.307 118.806 269.392 120.111C269.392 120.111 272.392 145.9 266.69 165.497C265.414 169.884 267.746 183.682 267.746 183.682L230.891 183.196C230.891 183.196 235.257 149.838 233.613 144.45C231.968 139.062 231.928 120.284 231.928 120.284C231.928 120.284 232.181 120.245 240.209 118.857C243.953 118.21 249.153 117.758 252.951 117.763Z" fill="#B75742"/>
<path d="M263.588 175.915C263.588 175.915 289.029 174.502 294.71 177.943C300.391 181.383 290.674 198.269 290.674 198.269C290.674 198.269 272.971 197.453 238.296 199.455C230.085 199.929 229.378 178.045 230.913 176.234C232.449 174.423 263.588 175.915 263.588 175.915Z" fill="#E0973F"/>
<path d="M234.177 234.634C234.177 234.634 232.512 243.932 233.28 246.838C234.048 249.745 231.37 253.611 231.136 254.177C230.901 254.744 227.704 254.781 223.117 253.003C218.53 251.225 218.9 250.155 219.757 248.497C220.613 246.838 223.738 245.253 224.343 243.616C224.948 241.98 224.978 235.51 224.978 235.51L234.177 234.634Z" fill="#F7A491"/>
<path d="M222.338 253.549C217.614 251.718 218.861 249.491 219.742 247.783C220.294 246.714 222.051 245.752 223.224 244.71C223.566 245.174 224.107 245.976 226.051 247.17C228.069 248.41 231.422 247.939 233.554 247.653C233.551 250.379 232.707 253.628 232.511 254.102C232.269 254.685 227.061 255.379 222.338 253.549Z" fill="#DD513A"/>
<path d="M240.34 197.525C239.317 205.215 234.198 243.493 234.198 243.493L222.546 241.848C222.546 241.848 221.707 189.856 224.41 182.668C227.113 175.479 232.47 176.259 232.47 176.259C232.47 176.259 243.048 177.166 240.34 197.525Z" fill="#F7CC7F"/>
<path d="M231.575 123.161C234.933 121.655 238.563 152.536 239.828 165.261C245.955 165.465 256.534 164.216 259.165 163.851C260.402 163.68 263.202 162.45 264.428 162.21C265.685 161.965 266.828 161.806 267.458 161.875C267.689 161.901 274.2 164.098 274.779 164.633C275.496 165.297 277.429 166.963 277.17 167.752C276.911 168.542 273.533 165.827 273.533 165.827L271.918 165.049C273.98 166.826 277.844 169.093 277.367 170.037C276.902 170.958 273.399 168.63 270.907 167.051C273.068 168.769 275.815 171.913 275.262 172.464C274.765 172.96 271.636 169.317 268.48 168.41C267.31 168.073 266.241 169.275 265.35 169.469C264.695 169.611 263.687 169.888 263.027 169.745L259.625 169.007C258.493 169.182 258.507 169.857 257.372 170.174C256.055 170.542 253.884 170.979 252.21 171.501C242.572 174.508 239.376 175.824 236.379 176.01C227.301 176.576 223.639 126.721 231.575 123.161Z" fill="#F7A491"/>
<path d="M226.877 152.663C225.412 139.639 224.494 123.531 231.645 120.323C234.466 119.057 239.97 125.255 240.735 152.058C236.846 152.627 231.122 153.247 226.877 152.663Z" fill="#A34B3D"/>
<path d="M275.344 239.031C275.344 239.031 273.23 241.722 274.167 244.39C275.105 247.058 281.437 251.734 281.951 253.182C282.464 254.629 282.04 255.534 282.04 255.534L262.361 247.42L264.862 241.497L267.42 237.529L275.344 239.031Z" fill="#F7A491"/>
<path d="M275.022 245.867C275.022 245.867 269.125 245.99 267.122 243.827C265.12 241.664 265.323 241.354 264.435 241.538C263.864 241.657 262.67 243.986 261.889 245.634C261.473 246.512 261.88 247.559 262.777 247.931L283.262 256.421C284.832 256.977 286.055 256.131 285.163 254.668C284.553 253.666 283.722 252.834 283.277 252.291C281.909 250.622 275.022 245.867 275.022 245.867Z" fill="#DD513A"/>
<path d="M282.155 180.662C284.301 177.488 288.675 173.594 294.774 177.265C300.591 180.766 301.302 187.308 298.367 193.451C295.431 199.594 276.794 235.498 275.555 240.635L265.253 239.141C265.253 239.141 271.674 209.446 273.233 202.27C274.732 195.365 278.443 186.157 282.155 180.662Z" fill="#F7CC7F"/>
<path d="M298.895 146.675H264.098C263.177 146.675 262.348 147.233 261.999 148.088L251.285 174.308H232.101C231.565 174.308 231.13 174.744 231.13 175.282C231.13 175.82 231.565 176.256 232.101 176.256H286.699C288.2 176.256 289.561 175.372 290.176 173.998L300.965 149.884C301.638 148.378 300.54 146.675 298.895 146.675Z" fill="#184655"/>
<path d="M280.16 161.944C279.925 163.121 278.902 163.909 277.874 163.703C276.846 163.496 276.203 162.375 276.438 161.197C276.673 160.019 277.697 159.232 278.725 159.438C279.753 159.644 280.396 160.766 280.16 161.944Z" fill="white"/>
<path d="M255.468 84.908C254.375 84.7403 253.289 84.5252 252.224 84.2229C251.021 83.8811 249.473 83.5051 248.539 83.5232C246.575 83.5618 243.323 84.3316 241.851 86.6172C240.018 89.4644 235.65 88.1556 238.7 100.861C242.152 115.242 249.959 112.235 250.112 111.955C250.266 111.675 255.7 101.395 255.7 101.395C255.7 101.395 259.089 106.332 259.055 106.135C259.021 105.945 268.607 86.9226 255.468 84.908Z" fill="#0E2E35"/>
<path d="M253.939 112.394L255.543 117.468C255.543 117.468 258.412 124.681 256.652 126.475C254.893 128.268 246.504 118.825 246.504 118.825L244.898 105.539L253.939 112.394Z" fill="#F7A491"/>
<path d="M245.419 109.845C247.864 114.045 252.303 116.115 255.299 116.696L253.938 112.394L244.898 105.539L245.419 109.845Z" fill="#F47458"/>
<path d="M249.599 89.9561C253.741 88.5243 258.162 91.2853 258.8 95.5706C259.077 97.4336 259.329 99.7762 259.379 102.337C259.498 108.496 256.327 114.491 253.539 114.491C250.751 114.492 243.041 110.506 242.751 101.761C242.572 96.363 245.252 91.4585 249.599 89.9561Z" fill="#F7A491"/>
<path d="M244.806 102.453C244.808 103.812 243.911 104.913 242.803 104.913C241.696 104.913 240.797 103.812 240.795 102.454C240.793 101.095 241.69 99.9932 242.797 99.9929C243.905 99.9928 244.804 101.094 244.806 102.453Z" fill="#F7A491"/>
<path d="M242.797 99.9932C242.797 99.9932 246.211 100.235 247.058 97.9193C247.905 95.6033 251.454 90.3056 257.301 91.2257C263.148 92.1457 251.646 87.4955 251.205 87.5724C250.763 87.6495 245.459 88.5366 245.459 88.5366C245.459 88.5366 241.961 92.6081 241.879 93.0029C241.796 93.398 241.321 97.627 241.321 97.627L242.797 99.9932Z" fill="#0E2E35"/>
<path d="M250.314 107.728L256.465 107.828C256.465 107.828 256.288 110.169 253.582 110.204C250.282 110.246 250.314 107.728 250.314 107.728Z" fill="white"/>
<path d="M326.747 519.84C326.747 519.84 324.708 528.324 323.308 530.842C322.558 532.19 320.023 534.643 320.303 536.232C320.584 537.821 321.298 538.428 321.298 538.428L339.887 544.802C340.899 545.149 340.441 544.272 339.817 543.398C338.796 541.968 337.926 540.959 334.313 537.478C334.077 537.251 333.27 536.268 332.976 535.923C332.23 535.048 331.587 533.843 331.074 532.679C330.221 530.741 332.471 523.417 332.471 523.417L326.747 519.84Z" fill="#F7A491"/>
<path d="M332.974 535.92C327.618 535.59 324.246 533.536 322.472 532.043C321.457 533.374 320.146 535.032 320.163 536.239C320.185 537.716 320.733 538.227 321.298 538.428C325.774 540.014 337.742 544.082 341.169 545.245C341.648 545.408 342.097 544.929 341.908 544.458C341.388 543.155 333.269 536.266 332.974 535.92Z" fill="#F7CC7F"/>
<path d="M347.95 409.265C347.95 409.265 341.127 419.592 339.502 428.14C337.878 436.687 340.695 462.955 337.57 474.155C335.878 480.218 329.466 489.582 328.492 497.417C327.517 505.252 323.693 525.776 323.693 525.776L332.354 527.502L352.483 476.246L368.272 429.919L372.317 406.059L347.95 409.265Z" fill="#F47458"/>
<path d="M358.06 527.866C358.06 527.866 358.742 536.565 358.188 539.393C357.892 540.906 356.239 544.022 356.997 545.447C357.755 546.872 358.622 547.228 358.622 547.228L378.27 547.546C379.34 547.563 378.633 546.871 377.77 546.233C376.357 545.188 375.217 544.498 370.705 542.303C370.411 542.16 369.34 541.474 368.953 541.237C367.974 540.635 366.99 539.689 366.143 538.74C364.732 537.161 364.609 529.5 364.609 529.5L358.06 527.866Z" fill="#F7A491"/>
<path d="M373.417 412.235C373.417 412.235 375.891 426.359 374.266 435.619C372.642 444.878 364.844 530.707 364.844 530.707L356.179 531.199C356.179 531.199 354.363 495.346 354.688 490.36C355.013 485.374 357.584 477.03 357.584 477.03L356.722 448.083L367.656 410.055L373.417 412.235Z" fill="#E25A44"/>
<path d="M368.951 541.235C363.755 542.576 359.913 541.665 357.765 540.794C357.211 542.373 356.476 544.354 356.866 545.497C357.343 546.896 358.022 547.212 358.622 547.228C363.368 547.354 376.008 547.524 379.627 547.572C380.132 547.578 380.411 546.984 380.086 546.594C379.189 545.516 369.338 541.473 368.951 541.235Z" fill="#F7CC7F"/>
<path d="M399.729 394.907C400.222 394.214 396.654 392.501 396.681 391.663C396.708 390.825 401.659 392.199 402.035 391.566C402.728 390.398 396.706 389.727 396.99 389.17C397.275 388.613 403.519 388.999 403.18 387.802C402.841 386.605 396.663 388.076 396.703 387.343C396.742 386.609 402.571 386.491 402.913 384.957C403.096 384.137 392.977 386.422 392.094 385.69C391.21 384.958 394.409 381.784 393.767 380.988C393.126 380.192 388.448 387.196 387.812 387.31C387.179 387.423 373.579 388.979 369.078 388.829C369.027 388.035 370.337 381.354 369.713 374.751C369.118 368.453 366.587 362.219 366.556 361.507C359.689 358.425 355.908 365.321 358.384 376.785C358.86 381.702 359.089 397.373 360.153 398.283C363.392 401.052 384.281 394.447 387.756 393.237C391.234 392.026 392.689 393.17 394.826 393.089C396.963 393.009 399.235 395.599 399.729 394.907Z" fill="#F38B80"/>
<path d="M366.454 342.313C367.621 337.931 368.77 333.519 366.416 328.545C364.512 324.52 361.02 322.099 356.886 321.424C345.174 319.512 347.886 328.938 332.313 332.241C326.694 334.432 317.473 330.608 301.34 322.66C284.667 314.419 261.538 322.034 272.437 347.711C279.121 363.487 304.822 368.116 320.163 367.375C330.067 366.794 340.546 363.049 347.519 360.008C351.349 358.328 355.859 361.146 356.887 360.076C361.646 355.117 365.703 345.134 366.454 342.313Z" fill="#0E2E35"/>
<path d="M351.497 355.707C351.497 355.707 345.546 356.382 341.987 360.254C338.428 364.126 347.74 395.249 348.387 400.176C349.035 405.104 342.199 418.742 342.199 418.742C342.199 418.742 365.436 423.361 371.476 419.372C371.476 419.372 372.007 381.285 371.36 377.765C370.713 374.245 365.319 359.93 364.025 358.522C362.731 357.114 351.497 355.707 351.497 355.707Z" fill="#F7CC7F"/>
<path d="M352.773 343.943C352.773 343.943 352.759 344.211 352.731 344.668C352.595 346.859 351.932 354.155 351.136 356.237C350.174 358.751 356.634 365.605 361.851 364.032C363.404 363.564 359.662 357.276 359.716 356.555C359.82 355.174 359.96 353.291 360.103 351.36C360.184 350.271 360.265 349.166 360.342 348.128C360.558 345.178 360.735 342.766 360.735 342.766L352.773 343.943Z" fill="#F7A491"/>
<path d="M356.761 373.836L381.863 371.818C382.617 371.757 383.278 372.32 383.339 373.075L386.032 406.563C386.092 407.318 385.53 407.979 384.775 408.04L359.674 410.058C358.919 410.119 358.258 409.556 358.197 408.801L355.504 375.313C355.444 374.558 356.006 373.897 356.761 373.836Z" fill="#184655"/>
<path d="M375.237 371.257C375.225 371.104 375.091 370.99 374.938 371.002L364.468 371.845C364.315 371.857 364.201 371.991 364.213 372.144L364.301 373.232L375.325 372.345L375.237 371.257Z" fill="#13375B"/>
<path d="M369.596 370.1C368.685 370.173 368.005 370.972 368.078 371.884C368.152 372.796 368.95 373.476 369.862 373.403C370.774 373.329 371.454 372.531 371.381 371.619C371.307 370.707 370.509 370.027 369.596 370.1ZM369.815 372.811C369.23 372.857 368.717 372.421 368.67 371.837C368.623 371.252 369.059 370.74 369.644 370.692C370.229 370.645 370.741 371.081 370.788 371.666C370.836 372.251 370.4 372.763 369.815 372.811Z" fill="#13375B"/>
<path d="M375.047 371.015C375.15 371.049 375.228 371.143 375.237 371.257L375.324 372.345L364.3 373.232C364.361 373.986 365.021 374.548 365.775 374.487L374.069 373.82C374.823 373.759 375.385 373.099 375.324 372.345L375.237 371.257C375.228 371.143 375.15 371.049 375.047 371.015Z" fill="#355389"/>
<path d="M351.961 344.674C352.018 344.22 352.048 343.953 352.048 343.953L360.067 343.264C360.067 343.264 359.743 345.662 359.346 348.593C359.207 349.618 359.059 350.709 358.913 351.786C357.663 351.679 356.33 351.156 354.962 350.101C353.471 348.949 352.452 347.519 351.795 345.966C351.864 345.453 351.92 345.012 351.961 344.674Z" fill="#F47458"/>
<path d="M355.717 324.571C355.717 324.571 352.47 325.224 350.283 328.432C348.097 331.639 346.115 341.265 352.323 346.056C358.53 350.847 363.999 344.664 364.487 338.432C364.975 332.199 364.291 323.826 355.717 324.571Z" fill="#F7A491"/>
<path d="M366.114 336.801C365.832 338.314 364.918 339.38 364.07 339.182C363.222 338.985 362.764 337.598 363.045 336.085C363.326 334.573 364.241 333.507 365.088 333.705C365.936 333.903 366.395 335.289 366.114 336.801Z" fill="#F7A491"/>
<path d="M359.357 324.378C359.357 324.378 352.197 333.682 348.605 334.318C345.012 334.954 344.828 339.769 344.828 339.769C344.828 339.769 345.451 328.663 348.903 326.318C352.356 323.974 359.357 324.378 359.357 324.378Z" fill="#0E2E35"/>
<path d="M349.918 336.392C350.31 337.974 349.807 339.476 348.796 339.749C347.784 340.021 346.647 338.959 346.256 337.378C345.864 335.796 346.367 334.294 347.378 334.021C348.39 333.749 349.527 334.81 349.918 336.392Z" fill="#F7A491"/>
<path d="M360.988 341.717L355.389 342.028C355.389 342.028 355.636 344.148 358.103 344.082C361.11 344.002 360.988 341.717 360.988 341.717Z" fill="white"/>
<path d="M344.035 390.788L352.893 388.812C352.893 388.812 355.173 396.128 355.598 396.915C355.598 396.915 371.599 396.099 378.088 395.163C378.088 395.163 380.35 392.655 381.31 391.778C382.271 390.9 385.12 389.342 385.761 389.032C386.402 388.721 386.418 389.532 385.927 389.98C385.437 390.428 384.181 391.626 384.045 392.626C384.045 392.626 385.298 392.355 385.843 391.857C386.388 391.359 387.068 390.462 386.978 390.145C386.888 389.827 386.782 389.024 387.006 388.995C387.063 388.988 387.217 389.212 387.375 389.447C387.525 389.67 387.681 389.898 387.824 390.127C388.08 390.537 388.42 391.147 388.565 391.424C388.897 392.055 389.102 394.032 389.263 394.705C389.555 395.934 389.391 396.579 388.862 397.093C387.963 397.785 386.963 398.369 385.428 399.063C382.614 400.334 379.656 400.387 378.444 400.644C377.232 400.902 357.963 405.261 357.963 405.261C357.963 405.261 350.193 406.663 349.276 405.55C348.359 404.438 344.035 390.788 344.035 390.788Z" fill="#F7A491"/>
<path d="M341.895 359.527C341.895 359.527 339.618 361.709 339.084 368.038C338.578 374.051 346.655 400.533 346.655 400.533L355.119 396.056L355.597 382.296C356.403 373.888 352.725 365.634 345.842 360.737C344.006 359.431 342.497 358.775 341.895 359.527Z" fill="#F7CC7F"/>
<path d="M608.049 531.676C608.049 531.676 610.282 534.829 610.165 535.814C610.049 536.8 608.314 547.267 607.025 548.037C605.736 548.808 602.347 548.9 603.195 550.188C603.836 551.162 609.965 552.103 614.047 552.622C615.238 552.773 618.444 543.633 619.165 542.336C620.212 540.451 622.692 536.229 622.332 534.715C622.157 533.978 620.976 532.312 619.19 530.632C617.311 528.864 615.834 525.425 615.834 525.425L608.049 531.676Z" fill="#F48C7F"/>
<path d="M619.07 530.541C619.07 530.541 609.564 547.042 606.953 547.444C606.26 547.55 603.029 547.551 602.185 548.825C601.931 549.21 601.853 550.633 601.853 550.633L614.92 553.03C614.92 553.03 617.999 545.556 619.279 542.259C619.279 542.259 624.269 534.545 624.024 533.716C623.779 532.886 619.07 530.541 619.07 530.541Z" fill="#F47458"/>
<path d="M611.999 531.292C611.999 531.292 615.076 538.039 615.08 538.057C615.361 539.144 616.322 541.807 616.41 542.81C616.741 546.578 599.135 541.103 602.797 539.099C603.129 538.918 604.104 537.615 604.105 536.323C604.106 534.332 602.283 531.994 602.283 531.994L611.999 531.292Z" fill="#F7A491"/>
<path d="M617.485 543.968L614.999 537.992C614.999 537.992 611.064 540.079 608.995 539.97C606.927 539.862 602.836 539.059 602.836 539.059C594.915 542.46 588.348 544.35 589.753 546.403L617.485 543.968Z" fill="#F47458"/>
<path d="M575.645 407.41C573.921 411.065 573.812 416.545 573.828 416.732C575.601 436.927 575.062 476.727 576.156 480.457C578.827 489.555 602.965 535.042 602.965 535.042L613.655 532.803L597.046 476.732L597.792 454.254C597.792 454.254 602.901 415.866 601.172 408.607C599.442 401.348 581.424 395.163 575.645 407.41Z" fill="#50BFA5"/>
<path d="M609.707 417.287L609.588 429.342L606.244 478.43L618.48 529.25C618.48 529.25 614.292 535.55 609.788 535.717L585.444 481.379L576.149 415.858C576.149 415.858 572.681 404.077 586.483 401.89C600.285 399.704 609.707 417.287 609.707 417.287Z" fill="#96D9C9"/>
<path d="M566.698 389.453L551.139 377.047L551.133 377.051C550.996 376.603 549.521 371.778 549.449 370.915C549.374 370.009 546.745 368.425 545.523 368.658C544.303 368.892 546.568 370.424 546.716 370.705C547.121 371.47 545.556 371.757 545.556 371.757C545.556 371.757 541.113 370.332 541.018 368.882C540.969 368.138 538.746 368.937 540.65 371.261C538.47 367.832 538.067 371.703 538.241 371.974C538.59 372.516 545.85 378.365 546.895 379.634C546.895 379.634 565.604 400.93 567.071 401.445C570.11 402.512 573.529 400.36 572.725 396.849C571.492 391.459 566.698 389.453 566.698 389.453Z" fill="#F7A491"/>
<path d="M583.289 360.128C581.426 359.133 570.048 367.009 570.575 368.879C571.102 370.748 565.845 390.886 565.845 390.886C565.845 390.886 564.333 394.883 565.088 397.739C566.032 401.308 569.078 401.837 569.923 402.014C571.257 402.292 574.421 395.727 577.574 389.752C580.727 383.778 589.11 363.238 583.289 360.128Z" fill="#F7A491"/>
<path d="M570.01 373.037L585.05 374.573C585.05 374.573 585.739 362.244 585.739 356.362C585.739 349.227 585.112 342.529 584.339 342.1C581.785 340.683 578.594 342.125 576.656 344.789C569.946 354.008 570.01 373.037 570.01 373.037Z" fill="#B75742"/>
<path d="M577.398 355.104C577.083 357.279 571.302 416.421 571.302 416.421C598.685 429.646 613.795 418.777 613.795 418.777C613.795 418.777 612.899 377.247 613.973 371.594C614.684 367.854 615.569 343.003 613.146 342.307C610.036 341.414 606.47 340.465 602.583 340.062C599.265 339.717 585.516 340.165 583.415 341.225C583.415 341.225 578.723 345.956 577.398 355.104Z" fill="#F47458"/>
<path d="M598.923 328.63L600.687 340.263C600.687 340.263 594.241 354.115 590.393 352.914C587.164 351.906 589.151 339.649 589.151 339.649C589.151 339.649 590.911 333.067 590.383 329.774C589.855 326.48 598.923 328.63 598.923 328.63Z" fill="#F7A491"/>
<path d="M590.383 329.774C589.855 326.48 598.922 328.63 598.922 328.63L599.069 329.595C598.803 330.24 598.479 330.793 598.085 331.216C596.06 333.396 592.894 334.705 590.158 334.804C590.431 333.028 590.6 331.124 590.383 329.774Z" fill="#F47458"/>
<path d="M600.41 312.171C600.667 312.078 602.464 325.421 599.053 329.092C595.641 332.764 588.994 333.966 586.609 331.074C583.972 327.876 584.104 313.535 589.408 309.758C594.713 305.982 600.41 312.171 600.41 312.171Z" fill="#F7A491"/>
<path d="M591.428 302.621C595.528 303.456 598.184 305.962 599.16 307.03C601.021 307.25 603.551 308.279 606.164 312.605C609.377 317.924 607.004 323.818 603.265 326.709C599.525 329.601 599.577 332.941 599.577 332.941L598.985 331.213C598.549 329.904 598.371 328.517 598.517 327.144C598.605 326.32 598.781 325.43 599.122 324.697C600.022 322.766 597.19 321.483 596.396 319.877C595.784 318.64 595.755 315.81 594.792 313.765L593.641 312.204C593.641 312.204 590.987 310.138 588.391 310.721C585.794 311.304 586.168 301.548 591.428 302.621Z" fill="#0E2E35"/>
<path d="M596.57 322.252C596.543 323.879 597.283 325.212 598.223 325.228C599.163 325.244 599.947 323.938 599.974 322.31C600.001 320.682 599.261 319.349 598.321 319.333C597.381 319.317 596.597 320.623 596.57 322.252Z" fill="#F7A491"/>
<path d="M591.03 326.013L585.887 325.747C585.887 325.747 585.905 327.706 588.163 327.888C590.916 328.111 591.03 326.013 591.03 326.013Z" fill="white"/>
<path d="M548.949 356.433C550.157 355.195 551.283 353.92 552.332 352.617L574.778 374.536C576.157 375.883 575.682 378.607 573.717 380.619C571.751 382.632 569.04 383.171 567.66 381.824L545.214 359.905C546.492 358.826 547.741 357.669 548.949 356.433Z" fill="#0E2E35"/>
<g opacity="0.963096">
<path d="M468.206 356.709C490.714 378.69 526.67 378.376 548.516 356.007C570.361 333.638 569.824 297.685 547.316 275.704C524.809 253.722 488.853 254.036 467.007 276.406C445.162 298.774 445.698 334.727 468.206 356.709Z" fill="#C5DDF9"/>
</g>
<path d="M463.043 361.996C488.489 386.846 529.138 386.491 553.835 361.202C578.532 335.913 577.925 295.268 552.479 270.417C527.033 245.567 486.384 245.922 461.687 271.211C436.991 296.499 437.598 337.145 463.043 361.996ZM468.206 356.709C445.698 334.727 445.161 298.775 467.007 276.406C488.853 254.037 524.808 253.722 547.316 275.704C569.824 297.685 570.361 333.638 548.516 356.007C526.67 378.376 490.714 378.69 468.206 356.709Z" fill="#184655"/>
<path d="M465.757 359.217C489.658 382.559 527.84 382.225 551.039 358.472C574.237 334.717 573.667 296.538 549.765 273.196C525.864 249.854 487.682 250.188 464.484 273.941C441.285 297.695 441.855 335.874 465.757 359.217ZM468.206 356.709C445.698 334.728 445.161 298.775 467.007 276.406C488.853 254.037 524.808 253.722 547.316 275.704C569.824 297.685 570.361 333.638 548.515 356.007C526.67 378.376 490.714 378.69 468.206 356.709Z" fill="#50BFA5"/>
<path d="M644.489 452.625L647.977 449.007C651.463 445.391 651.358 439.634 647.743 436.148L582.94 373.321C579.324 369.835 573.567 369.94 570.081 373.556L566.593 377.174C563.106 380.79 563.212 386.546 566.828 390.032L631.631 452.86C635.246 456.346 641.003 456.241 644.489 452.625Z" fill="#184655"/>
<path d="M640.916 417.047C640.933 416.92 640.935 416.794 640.922 416.667C640.519 412.571 637.118 378.178 636.546 376.716C636.028 375.396 620.777 353.583 620.777 353.583L613.281 363.796L627.948 383.361C628.277 384.604 633.569 407.821 633.569 407.821C633.569 407.821 634.654 412.053 635.14 414.588C634.918 415.198 634.701 415.775 634.508 416.248C634.022 417.26 633.449 418.09 632.928 418.788C632.272 419.667 631.188 421.587 631.054 422.101C630.899 422.698 630.619 423.939 630.461 424.688C630.302 425.438 630.085 426.31 630.048 426.717C630.026 426.964 629.771 427.458 629.575 427.806C629.282 428.325 629.781 428.938 630.347 428.75C630.88 428.573 631.295 427.884 631.55 427.454C632.272 426.241 632.657 424.025 632.837 424.143C633.016 424.26 633.649 428.018 633.748 428.443C633.849 428.868 634.607 433.232 635.036 434.03C635.464 434.827 636.03 434.694 636.18 434.195C636.31 433.765 635.708 427.658 635.708 427.658C635.708 427.658 635.633 426.879 635.974 427.123C636.315 427.366 636.873 432.909 637.11 433.72C637.347 434.532 637.888 434.961 638.347 434.31C638.905 433.517 637.945 427.637 637.945 427.637C637.945 427.637 637.838 426.898 638.153 426.967C638.469 427.036 638.865 431.76 639.111 432.168C639.356 432.577 639.976 432.723 640.272 432.042C640.621 431.24 639.718 425.999 639.718 425.999C639.718 425.999 639.763 425.581 639.96 425.72C640.156 425.858 640.782 429.862 641.189 430.232C641.531 430.544 641.816 430.242 641.816 430.242C642.564 429.731 641.417 425.924 641.429 424.03C641.44 422.137 640.562 420.009 640.824 417.755C640.84 417.613 640.886 417.266 640.916 417.047Z" fill="#F8A492"/>
<path d="M632.692 367.398L619.664 376.146C619.664 376.146 612.321 365.219 608.38 361.329C603.442 356.456 610.178 341.528 613.36 342.373C620.475 344.262 632.692 367.398 632.692 367.398Z" fill="#F47458"/>
<!-- Code injected by live-server -->
<script>
	// <![CDATA[  <-- For SVG support
	if ('WebSocket' in window) {
		(function () {
			function refreshCSS() {
				var sheets = [].slice.call(document.getElementsByTagName("link"));
				var head = document.getElementsByTagName("head")[0];
				for (var i = 0; i < sheets.length; ++i) {
					var elem = sheets[i];
					var parent = elem.parentElement || head;
					parent.removeChild(elem);
					var rel = elem.rel;
					if (elem.href && typeof rel != "string" || rel.length == 0 || rel.toLowerCase() == "stylesheet") {
						var url = elem.href.replace(/(&|\?)_cacheOverride=\d+/, '');
						elem.href = url + (url.indexOf('?') >= 0 ? '&' : '?') + '_cacheOverride=' + (new Date().valueOf());
					}
					parent.appendChild(elem);
				}
			}
			var protocol = window.location.protocol === 'http:' ? 'ws://' : 'wss://';
			var address = protocol + window.location.host + window.location.pathname + '/ws';
			var socket = new WebSocket(address);
			socket.onmessage = function (msg) {
				if (msg.data == 'reload') window.location.reload();
				else if (msg.data == 'refreshcss') refreshCSS();
			};
			if (sessionStorage && !sessionStorage.getItem('IsThisFirstTime_Log_From_LiveServer')) {
				console.log('Live reload enabled.');
				sessionStorage.setItem('IsThisFirstTime_Log_From_LiveServer', true);
			}
		})();
	}
	else {
		console.error('Upgrade your browser. This Browser is NOT supported WebSocket for Live-Reloading.');
	}
	// ]]>
</script>
</svg>
