<svg width="192" height="36" viewBox="0 0 192 36" fill="none" xmlns="http://www.w3.org/2000/svg">
<circle cx="18" cy="18" r="17.5" stroke="#EBEFF5"/>
<g clip-path="url(#clip0_99_5)">
<path d="M24 18.0365C24 14.702 21.3135 11.999 18 11.999C14.685 11.9998 11.9985 14.702 11.9985 18.0373C11.9985 21.05 14.193 23.5475 17.061 24.0005V19.7818H15.5385V18.0373H17.0625V16.706C17.0625 15.1933 17.9588 14.3578 19.329 14.3578C19.986 14.3578 20.6723 14.4755 20.6723 14.4755V15.9605H19.9155C19.1708 15.9605 18.9383 16.4263 18.9383 16.904V18.0365H20.6018L20.3363 19.781H18.9375V23.9998C21.8055 23.5468 24 21.0493 24 18.0365Z" fill="#EBEFF5" fill-opacity="0.5"/>
</g>
<circle cx="70" cy="18" r="17.5" stroke="#EBEFF5"/>
<g clip-path="url(#clip1_99_5)">
<path d="M75.23 15C74.845 15.175 74.43 15.29 74 15.345C74.44 15.08 74.78 14.66 74.94 14.155C74.525 14.405 74.065 14.58 73.58 14.68C73.185 14.25 72.63 14 72 14C70.825 14 69.865 14.96 69.865 16.145C69.865 16.315 69.885 16.48 69.92 16.635C68.14 16.545 66.555 15.69 65.5 14.395C65.315 14.71 65.21 15.08 65.21 15.47C65.21 16.215 65.585 16.875 66.165 17.25C65.81 17.25 65.48 17.15 65.19 17V17.015C65.19 18.055 65.93 18.925 66.91 19.12C66.5954 19.2061 66.2651 19.2181 65.945 19.155C66.0808 19.5812 66.3468 19.9542 66.7055 20.2215C67.0643 20.4887 67.4977 20.6368 67.945 20.645C67.1868 21.2452 66.247 21.5697 65.28 21.565C65.11 21.565 64.94 21.555 64.77 21.535C65.72 22.145 66.85 22.5 68.06 22.5C72 22.5 74.165 19.23 74.165 16.395C74.165 16.3 74.165 16.21 74.16 16.115C74.58 15.815 74.94 15.435 75.23 15V15Z" fill="#EBEFF5"/>
</g>
<path d="M125.5 13.5C125.765 13.5 126.02 13.6054 126.207 13.7929C126.395 13.9804 126.5 14.2348 126.5 14.5V21.5C126.5 21.7652 126.395 22.0196 126.207 22.2071C126.02 22.3946 125.765 22.5 125.5 22.5H118.5C118.235 22.5 117.98 22.3946 117.793 22.2071C117.605 22.0196 117.5 21.7652 117.5 21.5V14.5C117.5 14.2348 117.605 13.9804 117.793 13.7929C117.98 13.6054 118.235 13.5 118.5 13.5H125.5ZM125.25 21.25V18.6C125.25 18.1677 125.078 17.7531 124.773 17.4474C124.467 17.1417 124.052 16.97 123.62 16.97C123.195 16.97 122.7 17.23 122.46 17.62V17.065H121.065V21.25H122.46V18.785C122.46 18.4 122.77 18.085 123.155 18.085C123.341 18.085 123.519 18.1587 123.65 18.29C123.781 18.4213 123.855 18.5993 123.855 18.785V21.25H125.25ZM119.44 16.28C119.663 16.28 119.876 16.1915 120.034 16.034C120.192 15.8764 120.28 15.6628 120.28 15.44C120.28 14.975 119.905 14.595 119.44 14.595C119.216 14.595 119.001 14.684 118.842 14.8425C118.684 15.001 118.595 15.2159 118.595 15.44C118.595 15.905 118.975 16.28 119.44 16.28M120.135 21.25V17.065H118.75V21.25H120.135V21.25Z" fill="#EBEFF5"/>
<circle cx="122" cy="18" r="17.5" stroke="#EBEFF5"/>
<path d="M173.6 18.7857L175.935 17.5L173.6 16.2143V18.7857ZM178.802 15.43C178.86 15.6314 178.901 15.9014 178.928 16.2443C178.959 16.5871 178.973 16.8829 178.973 17.14L179 17.5C179 18.4386 178.928 19.1286 178.802 19.57C178.689 19.9557 178.428 20.2043 178.023 20.3114C177.812 20.3671 177.425 20.4057 176.831 20.4314C176.246 20.4614 175.71 20.4743 175.215 20.4743L174.5 20.5C172.614 20.5 171.44 20.4314 170.977 20.3114C170.572 20.2043 170.311 19.9557 170.198 19.57C170.14 19.3686 170.099 19.0986 170.072 18.7557C170.041 18.4129 170.027 18.1171 170.027 17.86L170 17.5C170 16.5614 170.072 15.8714 170.198 15.43C170.311 15.0443 170.572 14.7957 170.977 14.6886C171.188 14.6329 171.575 14.5943 172.169 14.5686C172.754 14.5386 173.289 14.5257 173.784 14.5257L174.5 14.5C176.385 14.5 177.56 14.5686 178.023 14.6886C178.428 14.7957 178.689 15.0443 178.802 15.43V15.43Z" fill="#EBEFF5"/>
<circle cx="174" cy="18" r="17.5" stroke="#EBEFF5"/>
<defs>
<clipPath id="clip0_99_5">
<rect width="12" height="12" fill="white" transform="translate(12 12)"/>
</clipPath>
<clipPath id="clip1_99_5">
<rect width="12" height="12" fill="white" transform="translate(64 12)"/>
</clipPath>
</defs>
</svg>
