<svg width="80" height="80" viewBox="0 0 80 80" fill="none" xmlns="http://www.w3.org/2000/svg">
<g clip-path="url(#clip0_6_27)">
<path d="M20.5132 25.2272C27.4514 25.2272 33.0964 19.5685 33.0964 12.6129C33.0964 5.65808 27.4514 0 20.5132 0C13.5746 0 7.92969 5.65808 7.92969 12.6129C7.92941 19.5685 13.5743 25.2272 20.5132 25.2272V25.2272ZM20.5132 4.20009C25.1358 4.20009 28.8963 7.9743 28.8963 12.6129C28.8963 17.2523 25.1355 21.0271 20.5132 21.0271C15.8908 21.0271 12.1298 17.2523 12.1298 12.6129C12.1295 7.9743 15.8905 4.20009 20.5132 4.20009ZM59.4869 25.2272C66.4252 25.2272 72.0701 19.5685 72.0701 12.6129C72.0704 5.65808 66.4252 0 59.4869 0C52.5484 0 46.9035 5.65808 46.9035 12.6129C46.9035 19.5685 52.5484 25.2272 59.4869 25.2272ZM59.4869 4.20009C64.1096 4.20009 67.87 7.9743 67.87 12.6129C67.87 17.2523 64.1093 21.0271 59.4869 21.0271C54.8643 21.0271 51.1036 17.2523 51.1036 12.6129C51.1036 7.9743 54.8643 4.20009 59.4869 4.20009Z" fill="#E91C32"/>
<path d="M79.5183 41.4737L77.3774 30.7377C76.709 27.3886 73.5153 24.7649 70.1065 24.7649H65.4774C65.2011 24.7649 64.9276 24.8194 64.6724 24.9253C64.4172 25.0312 64.1854 25.1864 63.9903 25.3821L59.4873 29.8983L54.9842 25.3821C54.7891 25.1864 54.5574 25.0311 54.3022 24.9252C54.047 24.8193 53.7734 24.7649 53.4971 24.7649H48.8675C47.5976 24.7649 46.3595 25.132 45.2694 25.7626C43.4359 25.026 41.4781 24.6478 39.5021 24.6484C37.7359 24.6479 35.9827 24.9497 34.3183 25.5408C33.333 25.0466 32.2452 24.7649 31.1324 24.7649H26.5034C26.2271 24.7649 25.9535 24.8194 25.6983 24.9253C25.4431 25.0312 25.2114 25.1864 25.0163 25.3821L20.5135 29.8983L16.0104 25.3821C15.8154 25.1864 15.5836 25.0311 15.3284 24.9252C15.0732 24.8193 14.7996 24.7649 14.5233 24.7649H9.8937C6.48462 24.7649 3.29115 27.3886 2.62306 30.738L0.481849 41.4737C0.421194 41.7784 0.428847 42.0926 0.504258 42.3939C0.579668 42.6952 0.720958 42.9761 0.917953 43.2162C1.11495 43.4564 1.36274 43.6498 1.6435 43.7827C1.92425 43.9155 2.23097 43.9845 2.54157 43.9845H24.3737C26.0428 50.8061 32.1909 55.8834 39.5024 55.8834C46.8139 55.8834 52.962 50.8061 54.6311 43.9845H77.4586C77.7692 43.9844 78.0759 43.9155 78.3566 43.7826C78.6374 43.6497 78.8851 43.4562 79.0821 43.2161C79.2791 42.976 79.4204 42.6952 79.4958 42.3939C79.5713 42.0926 79.5789 41.7783 79.5183 41.4737V41.4737ZM6.74223 31.5596C7.01775 30.1774 8.4903 28.965 9.8937 28.965H13.6517L19.0261 34.3554C19.2212 34.5511 19.453 34.7063 19.7081 34.8122C19.9633 34.9181 20.2369 34.9727 20.5132 34.9727C20.7895 34.9727 21.0631 34.9181 21.3183 34.8122C21.5735 34.7063 21.8052 34.5511 22.0003 34.3554L27.375 28.965H28.7667C25.8946 31.708 24.0651 35.5342 23.936 39.7845H5.10195L6.74223 31.5596V31.5596ZM39.5024 51.6833C33.2283 51.6833 28.1238 46.5612 28.1238 40.2655C28.1238 33.9704 33.228 28.8488 39.5024 28.8488C45.7765 28.8488 50.881 33.9704 50.881 40.2655C50.881 46.5612 45.7765 51.6833 39.5024 51.6833ZM55.0688 39.7845C54.9397 35.5342 53.1101 31.708 50.2381 28.965H52.6254L57.9999 34.3554C58.195 34.5511 58.4268 34.7064 58.682 34.8123C58.9372 34.9183 59.2108 34.9728 59.4871 34.9728C59.7635 34.9728 60.0371 34.9183 60.2923 34.8123C60.5475 34.7064 60.7793 34.5511 60.9744 34.3554L66.3491 28.965H70.1065C71.5099 28.965 72.9824 30.1774 73.2582 31.5596L74.8985 39.7845H55.0688ZM61.9152 63.6861C61.1099 59.6506 57.2626 56.4893 53.156 56.4893H47.204C46.9277 56.4893 46.6541 56.5438 46.3989 56.6497C46.1437 56.7556 45.9119 56.9108 45.7168 57.1065L39.5024 63.3391L33.2879 57.1065C33.0929 56.9108 32.8611 56.7556 32.6059 56.6497C32.3507 56.5438 32.0771 56.4893 31.8008 56.4893H25.8484C21.7419 56.4893 17.8943 59.6506 17.089 63.6863L14.3366 77.4892C14.2759 77.7939 14.2836 78.1081 14.359 78.4095C14.4344 78.7108 14.5757 78.9916 14.7727 79.2317C14.9697 79.4719 15.2174 79.6653 15.4982 79.7982C15.779 79.931 16.0857 80 16.3963 80.0001H62.6088C62.9194 79.9999 63.2261 79.931 63.5068 79.7981C63.7875 79.6652 64.0353 79.4718 64.2323 79.2316C64.4293 78.9915 64.5705 78.7107 64.646 78.4094C64.7214 78.1081 64.7291 77.7939 64.6685 77.4892L61.9152 63.6861V63.6861ZM18.9564 75.8L21.2082 64.5082C21.6139 62.4736 23.7823 60.6894 25.8484 60.6894H30.9292L38.0156 67.7963C38.2106 67.992 38.4423 68.1473 38.6975 68.2532C38.9527 68.3592 39.2262 68.4137 39.5025 68.4137C39.7788 68.4137 40.0524 68.3592 40.3076 68.2532C40.5627 68.1473 40.7945 67.992 40.9895 67.7963L48.0759 60.6894H53.1563C55.2225 60.6894 57.3906 62.4736 57.7963 64.5079L60.0487 75.8H18.9564Z" fill="#E91C32"/>
</g>
<defs>
<clipPath id="clip0_6_27">
<rect width="80" height="80" fill="white"/>
</clipPath>
</defs>
</svg>
